<?xml version="1.0" standalone="no"?>
<svg version="1.1" id="Layer_1" xmlns="http://www.w3.org/2000/svg" xmlns:xlink="http://www.w3.org/1999/xlink" x="0px" y="0px" width="595.279px" height="595.281px" viewBox="0 0 595.279 595.281" enable-background="new 0 0 595.279 595.281" xml:space="preserve">
<path id="color_x5F_2" fill="#1f4879" d="M508.486,406.963l0.019,0.176c-0.125,0.014-0.25,0.039-0.372,0.07
	C508.25,407.127,508.369,407.045,508.486,406.963z M512.072,436.764c-1.388-9.578-5.394-18.705-5.097-28.502
	c0.003-0.109,0.037-0.211,0.084-0.309c-5.897,4.1-11.84,8.139-17.674,12.326c-5.486,3.939-11.576,7.922-16.961,12.486l-6.919,6.828
	h48.016l-0.415-2.188C512.584,437.415,512.14,437.225,512.072,436.764z M521.154,380.981c-8.655-9.018-20.15-13.271-32.457-10.645
	c0.91,2.309,1.843,4.621,2.72,6.969c12.597,0.91,20.065,10.625,25.698,21.176c0.47,0.879-0.758,1.629-1.724,1.646
	c0.017,0.027,0.029,0.051,0.045,0.074c0.062-0.018,0.105-0.043,0.173-0.059C524.313,398.116,523.288,388.889,521.154,380.981z
	 M475.067,395.02c3.104-6.154,6.427-14.402,13.787-15.918c-0.548-0.141-0.563-0.525-0.3-0.914
	c-3.271-8.721-7.75-17.232-8.116-26.723c-0.414-10.744,1.534-21.553-0.563-32.199c-0.155-0.787,2.76-1.48,2.897-0.777
	c2.113,10.725-0.231,21.424,0.564,32.199c0.467,6.314,2.419,12.08,4.639,17.809c11.625-2.607,22.697,0.205,31.65,7.396
	c-0.359-1.125-0.696-2.166-0.973-3.078c-4.009-13.271-6.022-27.551-8.077-41.242c-0.989-6.602-1.854-14.285-4.162-21.193
	c-2.041-4.412-4.348-8.391-6.14-11.258c-0.791-0.904-1.63-1.771-2.568-2.557c-6.449-5.395-14.271-8.408-21.837-11.898
	c-3.668,6.123-4.063,13.754-8.441,19.584c-0.509,0.676-2.307,1.342-2.807,0.33c-1.344-2.725-3.42-4.75-6.203-5.211
	c-2.974,18.342-0.894,36.896-0.559,55.35c0.349,19.164,1.01,38.102,3.399,57.139c1.631-1.627,3.18-3.328,4.677-4.984
	C469.333,403.112,472.771,399.577,475.067,395.02z M466.259,301.723c3.157-5.725,3.788-12.586,7.473-18.064
	c-2.819-1.355-5.579-2.822-8.194-4.545c-0.094,0.145-0.182,0.289-0.272,0.434c0.041,0.115,0.087,0.229,0.125,0.346
	c0.075,0.234-0.276,0.498-0.761,0.701c-0.011,0.018-0.021,0.037-0.032,0.057c-0.435,1.803-1.222,3.387-2.288,4.762
	c-1.65,4.021-2.904,8.236-4.896,12.127C461.106,297.293,464.14,298.834,466.259,301.723z M496.274,380.51
	c-1.442-0.531-2.969-0.93-4.599-1.148c0.073,0.188,0.061,0.402-0.031,0.615C492.758,380.065,494.466,380.229,496.274,380.51z
	 M422.608,426.497c0.515,0.111,1.031,0.197,1.553,0.273l-2.334-1.158C421.522,425.958,421.603,426.28,422.608,426.497z
	 M418.515,426.161c0.178-1.875,2.974-3.455,5.813-4.561l2.188-1.426c-0.142-0.084-0.252-0.197-0.306-0.357
	c-5.694-16.891-2.533-36.313-1.071-53.654c1.778-21.092,0.367-42.561,3.463-63.521c-2.347-4.086-5.945-5.525-10.56-2.906
	c-0.225,0.127-2.938,0.859-2.546,0.186c1.563-2.688,3.384-5.572,5.603-8.006c-1.792,0.918-3.593,1.844-5.385,2.852
	c-6.485,3.645-8.896,10.162-10.63,17.057c-3.756,14.928-8.509,30.059-10.599,45.422c8.081,0.102,16.472,4.766,21.511,11.295
	c-0.174-18.219-0.648-36.5,2.313-54.537c0.146-0.881,3.048-1.406,2.885-0.412c-3.247,19.777-2.34,39.854-2.26,59.813
	c2.679,5.947,2.536,12.719-2.476,18.828c-0.201,0.244-0.497,0.4-0.818,0.484c-2.521,6.162-6.671,11.641-11.946,15.697
	c0.428,0.068,0.704,0.289,0.568,0.703c-2.867,8.779-2.332,18.355-1.703,27.438c0.011,0.154-0.024,0.299-0.093,0.434l14.806,0.477
	c3.158-5.195,10.723-6,16.354-7.791C428.045,429.467,418.201,429.479,418.515,426.161z M415.417,389.264
	c2.643-4.297,2.853-8.887,1.426-13.146c-0.452,0.01-0.801-0.1-0.802-0.361c-0.001-0.545-0.005-1.092-0.007-1.639
	c-3.722-8.021-13.013-14.414-21.83-14.598c-0.318,2.689-0.56,5.389-0.685,8.094C403.959,370.702,411.755,379.206,415.417,389.264z
	 M429.418,299.282c0.229-0.174,0.535-0.309,0.855-0.391c0.631-2.709,1.056-5.488,2.591-7.824c-0.401-1.666-0.599-3.352-0.966-5.025
	c-0.023-0.113-0.068-0.213-0.098-0.322c-0.585,0.42-1.175,0.826-1.771,1.215c-0.018,0.236-0.362,0.557-1.113,0.789
	c-0.104,0.031-0.201,0.078-0.304,0.113c-0.896,0.543-1.804,1.055-2.716,1.557c-2.762,2.18-5.033,5.762-6.74,8.662
	C422.902,296.706,426.604,296.776,429.418,299.282z M352.012,387.428c-1.664,2.576-3.82,4.756-6.657,6.168
	c-7.645,3.803-16.498,1.738-23.897-2.295c-0.392-0.193-0.808-0.428-1.256-0.715c-2.01-1.182-3.896-2.494-5.599-3.859
	c-7.811-6.268-14.394-13.859-20.975-21.428c0.805,4.813-0.061,10.303-0.825,14.471c-1.538,8.371-3.945,16.711-7.456,24.477
	c-0.039,0.088-0.104,0.166-0.182,0.242c0.643-0.234,1.383-0.338,1.687-0.074c11.111,9.656,27.245,11.867,41.476,11.172
	c6.073-0.301,13.788-0.852,20.784-2.789c4.563-1.734,8.58-3.768,11.32-5.275c0.797-0.607,1.556-1.254,2.245-1.961
	c-3.376-6.029-6.912-12.762-8.771-19.609C353.481,386.282,352.822,386.799,352.012,387.428z M311.351,353.227
	c2.706,1.684,7.024,3.857,11.035,5.771C318.833,356.893,315.113,355.028,311.351,353.227z M333.124,344.811
	c0.149,0,0.313-0.002,0.493-0.002c-0.169-0.031-0.334-0.063-0.495-0.098C333.123,344.745,333.124,344.778,333.124,344.811z
	 M285.269,316.725c-0.067-0.785,2.852-1.322,2.898-0.777c0.198,2.277-0.775,4.213-1.996,6.066c-0.14,0.211-0.372,0.355-0.626,0.475
	c2.349,2.061,4.146,5.266,5.038,7.936c1.206,3.613,1.175,9.08,4.271,11.654c0.074,0.063,0.1,0.135,0.085,0.209
	c11.492,7.041,24.897,11.289,35.763,19.281c-0.106-6.188-0.478-12.371-0.521-18.563c-0.001-0.004-0.003-0.008-0.003-0.014
	c-0.689-5.656-2.146-11.229-2.26-16.945c-0.018-0.836,2.888-1.285,2.897-0.777c0.112,5.719,1.569,11.291,2.26,16.947
	c0.071,1.523,7.263,1.793,8.245,1.85c2.84,0.162,5.896,0.24,8.861-0.115c2.145-0.518,4.538-1.17,6.338-1.676
	c0.545-0.248,1.079-0.521,1.595-0.832c-0.151-0.021-0.251-0.066-0.258-0.145c-1.034-11.844,2.097-27.494-5.217-37.842
	c-6.645-9.4-18.186-12.973-28.72-16.512c-0.683,5.322-3.612,10.996-5.977,15.537c-2.464,4.734-5.524,10.814-10.655,13.131
	c-11.104,5.012-7.632-21.432-8.688-26.584l-2.412,1.137c-4.792,4.166-10.985,6.139-15.973,10.189
	c-0.714,0.58-1.363,1.219-1.977,1.893c-0.995,1.277-1.407,2.145-1.407,2.145s-0.092-0.02-0.257-0.051
	c-3.512,5.072-4.888,11.766-5.044,17.91c1.318,0.613,2.52,1.543,3.426,2.525c2.022,2.193,3.607,5.072,5.766,7.209l0.856,0.732
	c-1.603-3.465-4.354-7.191-3.05-10.777c0.644-1.766,3.56-1.523,4.829-0.926c0.225,0.105,0.446,0.227,0.664,0.354
	C284.843,319.946,285.42,318.444,285.269,316.725z M281.324,322.473c-0.038-0.023-0.077-0.045-0.115-0.068
	c0,0.018,0,0.031-0.001,0.045C281.245,322.456,281.286,322.465,281.324,322.473z M204.458,341.346l-1.345-8.91
	c0,0-0.401-0.793-1.084-2.021c0.432,1.498,0.806,3.039,1.158,4.646C203.647,337.149,204.06,339.245,204.458,341.346z
	 M239.318,373.616c-9.188-4.385-15.296-12.693-22.958-19.104l-1.631-0.781c-0.975,4.912-2.452,10.221-4.854,14.496
	c-0.113,0.203-0.296,0.365-0.513,0.49c0.188,0.895,0.366,1.791,0.565,2.684c0.187,0.838-2.722,1.566-2.897,0.777
	c-2.687-12.021-4.022-24.316-6.74-36.34c-1.403-6.207-2.899-11.77-7.712-16.348c-4.043-3.846-8.866-6.783-12.87-10.609
	c1.096,2.664,2.057,5.34,2.923,7.914c1.393,4.139,2.61,8.293,3.404,12.453c0.009,0.043,0.018,0.086,0.023,0.131
	c1.515,8.029,1.4,16.08-2.325,24.074c-0.118,0.256-0.528,0.447-1.003,0.572c1.694,7.16,2.989,14.32,4.051,21.189
	c1.99,12.895,3.211,25.943,3.438,38.996c0.154,8.859,0.228,18.037-1.549,26.764c-0.199,0.98-1.927,1.428-2.646,0.973
	c-0.209,1.242-0.342,1.945-0.342,1.945h21.335c-0.14-30.641-3.23-60.969-10.722-90.732c-0.215-0.854,2.688-1.613,2.897-0.775
	c4.888,19.422,7.896,39.086,9.441,58.918c0.486-0.078,0.952-0.035,1.187,0.215c4.854,5.158,10.485,5.918,15.142,0.031
	c2.834-3.582,5.013-7.729,6.319-12.113c1.158-3.893,1.668-7.857,2.925-11.688c0.109-1.35,0.157-2.195,0.157-2.195l6.076-11.98
	C240.004,373.694,239.578,373.739,239.318,373.616z M133.146,434.086l0.363-0.166c-0.151,0.035-0.302,0.066-0.453,0.098
	C133.088,434.04,133.115,434.063,133.146,434.086z M153.712,377.885c-1.095-6.885-2.398-14.049-4.092-21.205
	c-2.839-3.477-5.323-7.244-7.99-10.848c-3.472-4.688-7.531-8.271-11.827-12.189c-4.169-3.801-6.62-9.154-11.063-12.703
	c-4.17-3.332-9.06-4.775-14.185-5.967c-2.512-0.586-5.446-1.855-7.943-3.627c-7.438,8.771-16.606,18.816-18.663,30.297
	c-1.82,10.16-0.76,20.611-1.489,30.873c-0.845,11.867-2.866,23.668-3.504,35.543c-0.391,7.271,0.454,14.67,3.452,21.373
	c4.95,11.063,14.236,19.105,24.621,24.973c3.688,2.084,7.5,3.896,11.288,5.783c1.673,0.834,3.774,1.656,5.095,3.08
	c9.697-6.164,12.841-16.936,12.98-28.102c-10.52-7.24-13.855-21.859-28.492-21.904c-1.958-0.006,0.082-1.604,1.14-1.602
	c3.628,0.01,6.939,0.654,9.893,2.094c-0.003-12.746,2.594-25.518,3.444-38.205c0.716-10.676,2.863-29.66-7.881-36.488
	c-1.317-0.838,1.287-2.191,2.26-1.572c10.396,6.604,9.345,23.494,8.768,34.094c-0.797,14.615-3.987,29.32-3.639,43.977
	c1.261,0.943,2.438,2.072,3.527,3.41c4.146,5.1,7.515,10.469,12.81,14.424c0.296-0.174,0.671-0.32,1.022-0.375
	c2.184-0.332,6.931-3.678,9.409-2.076c3.816,2.461,3.765,7.482,3.398,11.514c-0.04,0.438-0.094,0.875-0.146,1.313
	c2.78-0.895,5.651-1.295,8.577-0.729c0.353,0.068,0.703,0.143,1.053,0.219l0.013-0.002c0-0.055,0-0.107,0.013-0.17
	c0.785-3.857,1.2-7.811,1.417-11.783c-0.082-8.637-0.286-20.902-0.789-32.736C155.621,391.643,154.802,384.739,153.712,377.885z"></path>
<path id="color_x5F_1" d="M161.632,271.04c0.168,0.328-0.293,0.775-0.525,0.912c-1.298,0.768-2.44,1.244-3.918,1.514
	c-1.979,0.359-1.108-1.553,0.34-1.814c0.311-0.135,0.62-0.268,0.932-0.4c-2.27-4.602-3.72-9.469-5.093-14.402
	c-0.316-1.145,2.578-1.926,2.898-0.777C157.695,261.206,159.197,266.276,161.632,271.04z M143.839,261.061
	c-0.346-1.109-0.409-2.279-0.754-3.391c-0.321-1.031-3.209-0.223-2.898,0.777c0.347,1.109,0.409,2.279,0.754,3.391
	C141.262,262.868,144.149,262.061,143.839,261.061z M158.356,253.458c0.346,1.109,0.408,2.279,0.753,3.391
	c0.321,1.031,3.209,0.223,2.898-0.777c-0.346-1.109-0.409-2.279-0.753-3.391C160.935,251.649,158.047,252.456,158.356,253.458z
	 M155.541,247.147c0.276-0.178,0.563-0.375,0.871-0.496c0.05-0.027,0.104-0.035,0.155-0.051c-0.027,0.02,0.251-0.031,0.313-0.033
	c0.695-0.014,1.446-0.191,2.049-0.549c0.457-0.27,0.403-0.58-0.152-0.568c-1.928,0.041-3.818,0.633-5.438,1.68
	c-0.445,0.285-0.412,0.563,0.152,0.566C154.159,247.702,154.976,247.512,155.541,247.147z M140.375,250.342
	c-0.028,0.018,0.25-0.033,0.313-0.035c0.695-0.014,1.446-0.193,2.049-0.549c0.457-0.27,0.403-0.58-0.151-0.568
	c-1.929,0.041-3.819,0.633-5.438,1.68c-0.443,0.287-0.413,0.563,0.152,0.568c0.666,0.006,1.484-0.184,2.049-0.549
	c0.277-0.18,0.563-0.375,0.87-0.498C140.268,250.364,140.322,250.354,140.375,250.342z M146.868,286.209
	c-4.196,0.246-4.641-4.566-4.438-7.697c0.029-0.459,0.432-0.809,0.927-0.998c0.109-0.16,0.248-0.303,0.372-0.383
	c0.614-0.404,1.382-0.506,2.063-0.236c2.281,0.896,5.011,0.961,7.301,0.061c0.543-0.213,1.479-0.43,1.936,0.096
	c0.444,0.514-0.319,1.115-0.741,1.281c-0.365,0.145-0.736,0.266-1.108,0.379C152.466,281.872,150.554,285.993,146.868,286.209z
	 M147.138,284.139c0.697-0.1,1.419-1.115,1.744-1.664c0.593-1,0.99-2.051,1.271-3.158c-1.613,0.15-3.242,0.027-4.826-0.363
	c-0.061,1.344-0.011,2.764,0.552,3.986C146.074,283.368,146.556,284.221,147.138,284.139z M113.568,277.311
	c-0.513,0.482,0.44,0.654,0.73,0.645c0.691-0.021,1.419-0.258,1.928-0.736c0.132-0.123,0.289-0.258,0.454-0.357
	c0.05-0.002,0.125-0.004,0.224,0.025c0.485,0.137,0.852,0.527,1.156,0.906c0.524,0.645,3.294-0.34,2.713-1.057
	C118.894,274.424,115.419,275.569,113.568,277.311z M283.061,258.829c-0.623-0.332-1.496-0.102-2.059,0.248
	c-1.261,0.781-2.482,1.707-2.981,3.154c-0.459,1.328,0.574,2.68,1.427,3.568c0.754,0.785,3.512-0.307,2.682-1.17
	c-0.656-0.686-1.371-1.49-1.252-2.506c0.115-0.977,1.215-1.611,1.956-2.07C283.258,259.79,283.673,259.155,283.061,258.829z
	 M295.171,255.34c1.036,0.344,3.412-1.162,1.735-1.719c-2.048-0.68-4.043-1.145-6.174-0.531c-0.469,0.135-1.401,0.563-1.228,1.215
	c0.172,0.641,1.202,0.572,1.671,0.438C292.52,254.356,293.898,254.918,295.171,255.34z M277.427,253.772
	c-1.979,0.002-4.173,0.289-5.687,1.693c-0.403,0.375-0.399,0.76,0.226,0.84c0.63,0.08,1.567-0.105,2.049-0.549
	c0.662-0.615,1.354-0.566,2.225-0.568c0.632,0,1.501-0.238,1.926-0.744C278.607,253.918,277.787,253.772,277.427,253.772z
	 M297.105,243.737c0.662,0.115,1.428-0.098,2.024-0.375c0.203-0.096,1.022-0.617,0.36-0.732c-3.343-0.588-6.481,0.148-9.599,1.369
	c-0.115,0.045-1.31,0.523-0.869,0.805c0.468,0.297,1.409,0.002,1.863-0.176C292.974,243.811,294.86,243.342,297.105,243.737z
	 M300.125,264.073c0.921,2.236,1.675,6.104-0.588,7.873c-2.813,2.201-5.898,0.572-8.129-1.561c-0.353-0.004-1.082-0.117-0.646-0.586
	c0.4-0.43,1.119-0.645,1.72-0.699c0.345-0.1,0.7-0.148,0.996-0.119c1.714-0.373,3-1.758,4.063-3.135
	c0.01-0.012,0.024-0.023,0.035-0.035c-0.105-0.326-0.221-0.648-0.35-0.961C296.883,264.016,299.733,263.122,300.125,264.073z
	 M298.034,267.905c-1.022,0.826-2.16,1.469-3.396,1.893c0.753,0.711,1.64,1.438,2.599,1.627c0.043,0.008,0.067,0.016,0.1,0.023
	c0.199-0.258,0.359-0.521,0.46-0.836C298.074,269.727,298.126,268.813,298.034,267.905z M367.159,404.165
	c2.27,12.406,5.872,24.43,6.03,37.135c0.014,1.031-2.892,1.629-2.907,0.326c-0.151-12.102-3.529-23.611-5.778-35.404
	c-8.598,7.965-24.021,9.891-34.947,10.559c-14.979,0.918-32.069-0.654-44.206-10.354c-3.825,11.543-4.273,23.77-7.079,35.563
	c-0.193,0.814-3.067,1.273-2.873,0.453c2.913-12.25,3.274-24.971,7.53-36.906c0.069-0.193,0.285-0.361,0.566-0.496
	c-0.653-0.012-1.157-0.283-0.866-0.928c3.253-7.197,5.614-15.023,7.04-22.787c1.218-6.625,3.22-16.732-2.124-22.127
	c-0.246-0.248-0.182-0.518,0.046-0.756c-1.057-1.172-2.125-2.332-3.205-3.479c-0.244,0.111-0.499,0.18-0.735,0.18
	c-9.459,0.016-15.204-5.248-22.104-10.82c-3.192,5.945-7.788,11.303-11.97,16.395c0.325,0.721,0.57,1.457,0.687,2.205
	c0.71,4.582-3.01,7.758-6.133,10.531c-0.1,0.09-0.229,0.162-0.377,0.223c-2.659,6.863-7.401,12.59-8.401,20.156
	c-0.699,5.303-2.797,10.764-5.793,15.199c-5.339,7.906-13.378,11.338-20.693,5.25c0.706,10.021,1.049,20.084,1.066,30.182
	c0.002,0.986-2.896,1.477-2.897,0.777c-0.001-0.447-0.009-0.896-0.011-1.346c-0.141-30.641-3.231-60.969-10.723-90.73
	c-0.215-0.855,2.688-1.615,2.898-0.777c4.887,19.422,7.896,39.086,9.441,58.918c0.485-0.078,0.951-0.035,1.187,0.215
	c4.854,5.158,10.485,5.918,15.141,0.031c2.834-3.582,5.014-7.729,6.319-12.113c1.159-3.893,1.668-7.857,2.925-11.688
	c0.313-0.951,0.659-1.898,1.088-2.832c1.722-3.74,4.164-7.221,5.627-11.063c0.074-0.195,0.257-0.365,0.491-0.506
	c-0.006-0.051,0.001-0.107,0.021-0.166c-0.292,0.15-0.646,0.293-0.992,0.391c-0.44,0.123-0.867,0.17-1.126,0.045
	c-9.189-4.385-15.296-12.693-22.958-19.104c-0.508-0.424-1.021-0.84-1.542-1.246c-0.03,0.154-0.06,0.309-0.089,0.465
	c-0.976,4.912-2.452,10.223-4.854,14.496c-0.112,0.203-0.296,0.365-0.512,0.49c0.187,0.896,0.366,1.791,0.565,2.684
	c0.187,0.838-2.723,1.566-2.898,0.777c-2.686-12.02-4.021-24.316-6.74-36.34c-1.402-6.207-2.898-11.77-7.712-16.346
	c-4.043-3.848-8.866-6.785-12.87-10.611c1.096,2.664,2.058,5.34,2.923,7.914c1.394,4.139,2.611,8.293,3.404,12.453
	c0.009,0.043,0.017,0.086,0.024,0.131c1.514,8.029,1.399,16.082-2.325,24.076c-0.119,0.256-0.529,0.445-1.003,0.57
	c1.693,7.16,2.989,14.32,4.05,21.189c1.991,12.895,3.211,25.943,3.439,38.996c0.153,8.859,0.227,18.037-1.55,26.764
	c-0.198,0.982-1.927,1.428-2.646,0.973c-0.237-0.15-0.365-0.396-0.292-0.758c1.708-8.393,1.716-17.234,1.566-25.762
	c-0.23-13.195-1.345-26.4-3.417-39.438c-3.943-24.791-10.553-53.189-28.626-71.814c-2.036,5.201-5.607,9.033-11.701,9.166
	c-3.978,0.088-7.859-1.459-11.415-3.561c10.352,12.912,16.436,29.402,20.362,45.91c0.209,0.254,0.408,0.516,0.623,0.766
	c0.363,0.424,0.211,0.854-0.168,1.174c1.5,6.588,2.674,13.156,3.648,19.479c1.991,12.896,3.211,25.943,3.439,38.996
	c0.154,8.861,0.227,18.037-1.549,26.766c-0.077,0.381-0.39,0.68-0.779,0.877c2.302,0.531,4.591,1.043,7.001,1.111
	c1.055,0.029,1.396,0.693,1.224,1.293c0.002,0.002,0.005,0.004,0.007,0.006c0.849,0.953,1.246,1.773,1.317,2.486
	c1.725-0.432,3.931-0.84,5.271,0.256c1.065,0.869,0.183,2.387-0.442,3.229c-0.748,1.008-1.693,1.955-2.739,2.82
	c-0.821,5.363-7.614,8.84-12.199,10.334c-6.239,2.031-13.032,2.855-19.161,0.193c-1.424,2.033-3.028,3.93-4.84,5.625
	c-0.474,0.443-2.9,0.756-2.701,0.318c-0.071-0.002-0.145-0.008-0.211-0.021c-3.069-0.641-5.842-3.391-9.048-3.104
	c-2.47,0.223-4.271-0.012-6.293-1.545c-0.722-0.549-0.241-1.217,0.493-1.576c-0.121-0.064-0.23-0.146-0.317-0.258
	c-1.612-2.086-5.314-3.16-7.591-4.275c-4.169-2.041-8.319-4.158-12.238-6.656c-10.03-6.4-19.05-15.182-22.887-26.727
	c-2.639-7.939-2.723-15.877-1.889-24.131c1.214-12.018,2.952-24.029,3.349-36.113c0.325-9.918-1.039-20.801,2.571-30.279
	c3.828-10.051,11.451-18.76,18.314-26.92c-3.185-2.938-4.964-6.826-2.722-11.121c5.266-10.092,19.787-4.838,27.444-11.139
	c-1.963,0.352-4.021,0.064-5.862-1.047c-3.279-1.979-6.119-5.857-5.302-9.898c0.146-0.727,0.396-1.439,0.722-2.127
	c-0.206-0.277-0.44-0.602-0.701-0.965c-0.347,0.016-0.639-0.053-0.771-0.232c-5.209-7.158-12.896-16.98-10.891-26.441
	c1.344-6.33,5.123-12.467,11.886-13.16c-0.353-8.17,11.476-11.266,20.521-12.873c11.88-3.994,27.41-8.221,35.573-7.035
	c10.782,1.564,4.823,7.346,2.389,9.336c0.106-0.004,0.204,0,0.281,0.021c2.182,0.6,6.857,2.102,5.954,5.314
	c0.172,0.74,0.037,1.574-0.563,2.502c-2.434,3.758-4.123,5.406-9.212,6.521c0.396,9.857,4.443,18.695,7.602,27.947
	c2.099,6.15,5.274,13.961,0.513,19.693c-1.335,1.605-3.078,3.135-5.064,4.508c4.625,3.561,8.089,8.557,10.802,13.959
	c0.618-0.174,1.262-0.191,1.462,0.09c4.924,6.916,13.132,10.191,18.355,16.758c2.481,3.119,3.874,6.414,4.903,9.988
	c0.432,1.498,0.806,3.039,1.159,4.646c0.459,2.088,0.871,4.186,1.27,6.283c1.474,7.783,2.636,15.629,4.114,23.406
	c1.595-3.736,2.662-7.918,3.39-11.781c-0.214-0.064-0.367-0.184-0.41-0.373c-0.573-2.541-0.303-5.248,1.456-7.271
	c1.649-1.9,4.359-2.566,6.78-2.371c0.139,0.012,0.251,0.031,0.352,0.055c2.211-1.725,4.712-1.941,7.232-1.291
	c-0.004-0.031-0.014-0.061-0.014-0.096c0.004-7.152-0.381-18.52,7.632-21.768c0.588-0.238,1.757-0.457,2.056,0.332
	c0.865,2.301,1.15,4.682,1.299,7.086c1.672-2.416,2.898-5.416,4.647-7.672c1.637-2.109,3.625-3.84,6.122-4.822
	c0.58-0.23,1.761-0.469,2.053,0.322c0.877,2.377,0.981,4.543,0.63,6.611c0.45-0.396,0.923-0.766,1.438-1.074
	c1.479-0.889,4.201-1.586,5.438,0.055c1.373,1.818,1.262,4.033,0.467,6.271c0.646-0.381,1.291-0.682,1.913-0.869
	c0.551-1.779,2.287-2.463,4.005-2.209c0.065-0.887,0.491-1.59,1.445-1.982c0.693-0.287,1.412-0.396,2.131-0.379
	c0.26-5.658,1.532-12.295,4.583-17.041c-10.765-0.891-20.483-5.826-20.897-17.787c-0.373-10.791,3.812-21.189,7.429-31.158
	c4.123-11.365,6.869-23.916,15.801-32.725c9.063-8.938,21.072-10.729,33.25-8.953c9.841-0.561,19.221,1.91,25.202,10.266
	c5.943,8.301,8.451,18.404,13.762,27.057c6.275,10.229,17.45,17.721,20.621,29.822c3.017,11.514-2.649,22.639-8.091,32.49
	c-0.121,0.219-0.38,0.395-0.692,0.523c1.468,8.645,0.423,18.098,1.156,26.504c0.019,0.201-0.22,0.389-0.562,0.541
	c0.517,0.016,0.783,0.146,0.229,0.484c-0.835,0.508-1.709,0.938-2.599,1.33c0.389,0.076,0.672,0.289,0.673,0.688
	c0.018,9.836,0.359,19.822-1.455,29.541c-0.436,2.332-0.998,4.807-1.781,7.227c0.318,0.057,0.556,0.209,0.599,0.484
	c1.233,7.973,5.288,16.02,9.216,23.07C365.893,403.512,367.037,403.497,367.159,404.165z M116.183,225.561
	c1.714-0.713,4.071-1.633,6.834-2.641C120.551,223.571,118.156,224.42,116.183,225.561z M142.934,445.458
	c0.382-3.52,1.106-7.977-0.863-11.143c-2.135-3.434-5.394-1.178-8.561-0.395c-0.151,0.035-0.302,0.066-0.453,0.098
	c0.031,0.021,0.059,0.047,0.09,0.068c0.018,0.01,0.03,0.023,0.047,0.033c0.021,0.014,0.02,0.029,0.034,0.045
	c0.015,0.014,0.023,0.027,0.033,0.043c0.062,0.084,0.08,0.174,0.028,0.271c-0.178,12.52-4.163,23.857-15.575,30.17
	c-0.146,0.182-0.358,0.336-0.604,0.455c0.015,0.008,0.03,0.014,0.043,0.023c2.435,1.852,4.62,0.588,7.253,1.377
	c2.611,0.781,4.862,2.455,7.533,3.014c0.109,0.021,0.202,0.051,0.281,0.084C138.146,463.168,142.005,454.008,142.934,445.458z
	 M145.574,446.194c-1.004,6.141-3.12,12.252-6.433,17.553c0.109,0.01,0.207,0.025,0.279,0.063
	c5.545,2.766,12.176,2.521,17.848,0.145c3.184-1.334,7.138-3.402,8.666-6.707c-1.465,0.77-3,1.338-4.487,1.629
	c-1.766,0.344-2.261-1.334-0.453-1.688c2.937-0.574,5.85-2.486,7.861-4.666c0.4-0.434,1.526-1.523,1.215-2.227
	c-0.3-0.68-2.931,0.186-3.353,0.293c-0.1,0.025-0.18,0.021-0.271,0.033c-2.153,2.037-7.861,2.693-9.92,3.518
	c-0.521,0.209-1.471,0.439-1.924-0.051s0.389-1.057,0.763-1.205c2.083-0.834,4.378-0.994,6.521-1.639
	c0.766-0.229,1.98-0.514,2.381-1.303c0.479-0.943-0.423-1.98-1.001-2.633c-0.084-0.096-0.12-0.193-0.129-0.289
	C157.05,446.516,151.71,444.04,145.574,446.194z M156.19,398.563c-0.569-6.922-1.389-13.824-2.479-20.678
	c-1.095-6.887-2.398-14.049-4.092-21.205c-2.839-3.477-5.323-7.246-7.99-10.85c-3.472-4.688-7.531-8.27-11.827-12.188
	c-4.169-3.803-6.62-9.154-11.063-12.703c-4.17-3.332-9.06-4.775-14.185-5.969c-2.512-0.584-5.446-1.854-7.943-3.625
	c-7.438,8.77-16.606,18.814-18.663,30.297c-1.82,10.158-0.76,20.609-1.489,30.871c-0.845,11.869-2.866,23.668-3.504,35.545
	c-0.391,7.27,0.454,14.67,3.452,21.371c4.95,11.064,14.236,19.107,24.621,24.975c3.688,2.084,7.5,3.896,11.288,5.783
	c1.673,0.834,3.774,1.656,5.095,3.08c9.697-6.164,12.841-16.938,12.98-28.104c-10.52-7.24-13.855-21.857-28.492-21.904
	c-1.958-0.006,0.082-1.604,1.14-1.602c3.628,0.012,6.939,0.654,9.893,2.094c-0.003-12.746,2.594-25.516,3.444-38.205
	c0.716-10.674,2.863-29.66-7.881-36.488c-1.317-0.838,1.287-2.189,2.26-1.572c10.396,6.605,9.345,23.496,8.768,34.094
	c-0.797,14.615-3.987,29.32-3.639,43.977c1.261,0.943,2.438,2.072,3.527,3.412c4.146,5.1,7.515,10.467,12.81,14.422
	c0.296-0.172,0.671-0.32,1.022-0.375c2.184-0.332,6.931-3.676,9.409-2.076c3.816,2.461,3.765,7.482,3.398,11.514
	c-0.04,0.438-0.094,0.875-0.146,1.313c2.78-0.893,5.651-1.295,8.577-0.727c0.353,0.068,0.703,0.143,1.053,0.217
	c0.004,0.002,0.009,0.002,0.013,0.004c0-0.002,0-0.004,0-0.006c0-0.055,0-0.107,0.013-0.17c0.785-3.857,1.2-7.811,1.417-11.783
	c0.255-4.672,0.229-9.371,0.148-13.979C157.02,411.065,156.706,404.807,156.19,398.563z M124.072,305.032
	c-0.607-0.6,0.098-1.258,0.97-1.51c-0.395-0.139-0.685-0.439-0.693-0.93c-0.093-4.848-1.058-9.74-2.032-14.529
	c-2.968,2.881-6.428,4.203-10.559,4.914c-5.484,0.941-15.304,0.449-17.513,7.076c-1.283,3.85,0.18,6.59,2.911,8.662
	c0.369,0.09,0.662,0.273,0.762,0.541c5.476,3.635,14.889,5.1,18.826,7.205c3.577,1.908,6.488,4.592,8.995,7.764
	c3.706,4.689,7.563,8.486,11.887,12.594c3.939,3.746,6.993,8.197,10.127,12.594C143.135,332.84,136.04,316.838,124.072,305.032z
	 M153.126,302.37c-0.097-0.137-0.154-0.305-0.154-0.514c0.001-2.244,0.012-4.492,0.283-6.721c-3.062,0.539-6.075,0.559-8.742-0.143
	c-1.638-0.43,0.864-1.805,1.777-1.563c2.219,0.582,5.02,0.523,7.935-0.051c0.309-0.135,0.654-0.209,0.979-0.211
	c2.771-0.65,5.594-1.758,8.08-3.217c0.14-0.148,0.444-0.332,0.808-0.49c3.649-2.328,6.426-5.443,6.948-9.014
	c1.044-7.123-3.269-15.32-5.664-21.84c-2.471-6.727-4.571-13.438-4.806-20.609c-0.845,0.131-1.74,0.258-2.739,0.383
	c-5.797,0.725-12.518,0.359-17.035-0.059c0.885,0.457,1.438,1.045,0.974,1.771c-0.896,1.393-2.602,1.99-4.11,2.486
	c-5.593,1.846-12.239,1.352-18.211,0.869c4.496,8.48,7.702,19.34,4.742,28.699c-0.202,0.639-1.112,0.955-1.846,0.875
	c-0.757,0.311-1.797,0.34-2.116-0.268c-2.979-5.666-8.925-0.568-9.121,4.127c-0.204,4.924,5.818,11.809,10.656,7.816
	c0.347-1.1,2.607-1.535,2.867-0.305c0.001,0.004,0.003,0.008,0.004,0.012c0.014,0.068,0.028,0.139,0.042,0.207
	c1.161,5.83,2.503,11.826,2.616,17.785c0.005,0.264-0.101,0.49-0.271,0.676c0.113,0.033,0.22,0.078,0.308,0.146
	c3.695,2.934,7.825,5.975,12.396,7.367c7.064,2.154,11.178-1.242,13.255-7.953C153.009,302.542,153.063,302.454,153.126,302.37z
	 M156.896,301.854c13.103,12.926,20.515,30.986,25.136,49.295c4.043-11.162,1.559-22.508-2.297-33.578
	c-3.264-9.373-7.481-20.111-15.433-26.555c-2.493,1.449-5.253,2.631-8.058,3.424c-0.327,2.346-0.338,4.717-0.338,7.082
	C156.292,301.518,156.654,301.616,156.896,301.854z M350.183,343.95c2.206-0.266,4.36-0.777,6.338-1.676
	c0.545-0.248,1.079-0.521,1.595-0.832c-0.151-0.021-0.25-0.066-0.258-0.145c-1.034-11.844,2.098-27.494-5.217-37.844
	c-6.645-9.398-18.186-12.971-28.719-16.51c-0.684,5.322-3.613,10.996-5.978,15.537c-2.464,4.734-5.523,10.814-10.655,13.131
	c-11.104,5.012-7.632-21.432-8.688-26.584c-0.019-0.09-0.035-0.188-0.057-0.266c-0.107-0.215-0.222-0.406-0.332-0.609
	c-0.64,0.729-1.314,1.396-2.023,2.012c-4.792,4.166-10.985,6.139-15.972,10.189c-0.714,0.58-1.364,1.219-1.978,1.893
	c-0.995,1.277-1.407,2.145-1.407,2.145s-0.092-0.02-0.257-0.051c-3.512,5.072-4.888,11.766-5.044,17.91
	c1.318,0.613,2.52,1.543,3.427,2.525c2.021,2.193,3.606,5.072,5.765,7.209c0.287,0.285,0.583,0.563,0.895,0.816
	c-0.014-0.027-0.023-0.057-0.036-0.084c-1.604-3.465-4.354-7.191-3.051-10.777c0.644-1.766,3.56-1.523,4.829-0.926
	c0.226,0.105,0.446,0.227,0.664,0.354c0.819-1.424,1.396-2.926,1.245-4.645c-0.068-0.785,2.851-1.324,2.897-0.777
	c0.199,2.277-0.774,4.211-1.995,6.064c-0.14,0.211-0.372,0.357-0.626,0.477c2.349,2.059,4.146,5.264,5.037,7.934
	c1.207,3.615,1.176,9.08,4.271,11.656c0.074,0.063,0.099,0.133,0.085,0.207c11.492,7.041,24.897,11.289,35.762,19.283
	c-0.105-6.189-0.477-12.373-0.52-18.563c-0.001-0.006-0.003-0.01-0.003-0.014c-0.689-5.656-2.146-11.229-2.261-16.945
	c-0.017-0.836,2.889-1.285,2.898-0.777c0.112,5.719,1.569,11.289,2.26,16.945c0.071,1.523,7.262,1.793,8.245,1.85
	C344.162,344.227,347.218,344.307,350.183,343.95z M302.009,301.731c0.05,2.723,0.299,15.934,5.892,10.879
	c4.183-3.779,6.896-9.336,9.138-14.42c1.511-3.428,3.418-7.336,3.943-11.172c-0.123-0.068-0.225-0.164-0.291-0.291
	c-2.071-3.93-2.344-8.221-2.38-12.561c-0.658-0.039-1.304-0.098-1.921-0.172c-1.953-0.23-0.084-1.889,1.1-1.746
	c0.282,0.031,0.589,0.068,0.907,0.104c0.483-0.922,2.828-1.209,2.829,0.068c0,0.023,0,0.049,0,0.074
	c1.882-0.055,3.733-0.51,4.684-2.047c1.06-1.711,0.865-3.855,0.188-5.676c-0.613-1.65-1.666-3.531-3.22-4.479
	c-0.469,0.125-0.912,0.338-1.313,0.58c-0.163,0.439-0.263,0.908-0.349,1.348c-0.207,1.057-3.142,1.521-2.906,0.332
	c0.039-0.195,0.088-0.391,0.143-0.584c-2.811-0.975-9.401-3.68-12.246-8.436c-3.024-5.059-2.598-14.58-2.354-17.758
	c-10.353,3.584-22.798,1.115-32.28,6.91c-0.188,0.115-0.41,0.182-0.641,0.217c-0.052,0.869-0.084,1.742-0.104,2.617
	c0.002,0,0.003-0.002,0.005-0.004c2.766-1.943,6.021-2.229,8.839-0.246c1.21,0.85-1.447,2.061-2.287,1.471
	c-1.656-1.164-3.009-1.451-4.722-0.248c-0.479,0.338-1.32,0.379-1.858,0.201c-0.027,4.238,0.309,8.506,0.978,12.668
	c0.881,5.482,1.971,12.217,6.957,15.584c4.264,2.875,9.09,2.729,13.725,4.502c4.188,1.605,6.771,4.293,8.799,8.199
	c0.059,0.115,0.123,0.219,0.182,0.336c0.025,0.09,0.037,0.184,0.062,0.273C302.611,292.54,301.927,297.372,302.009,301.731z
	 M271.519,232.184c1.064-1.777,2.242-3.654,3.479-5.465c-0.574,0.752-1.132,1.535-1.661,2.367
	C272.689,230.102,272.089,231.137,271.519,232.184z M263.016,333.723c-0.196,0.328-0.376,0.623-0.515,0.855
	c-0.079,0.133-0.165,0.262-0.245,0.393c0.556,0.004,1.15,0.127,1.853,0.43c0.027,0.012,0.056,0.031,0.083,0.045
	C263.805,334.868,263.406,334.299,263.016,333.723z M247.103,362.84c-1.547-3.5-4.525-6.225-7.182-8.887
	c-3.531-3.543-13.803-15-18.953-8.748c-0.736,0.895-3.521,0.699-2.379-0.686c0.002-0.002,0.004-0.004,0.007-0.006
	c-3.761-0.273-4.734,3.535-4.271,6.629c0.078,0.016,0.153,0.039,0.225,0.066c0.585-0.197,1.212-0.287,1.507-0.076
	c9.161,6.559,15.593,16.477,25.92,21.432C244.623,370.235,248.844,366.78,247.103,362.84z M259.662,342.165
	c0.132-0.273,1.735-4.879,1.188-4.531c-0.125,0.078-0.266,0.135-0.41,0.176c-1.366,2.037-2.811,4.02-4.282,5.984
	c-0.599,0.799-3.535,0.98-2.713-0.117c1.593-2.123,3.36-4.338,4.912-6.66c0.002-0.195,0.129-0.41,0.413-0.625
	c1.104-1.715,2.075-3.488,2.739-5.336c0.281-0.781,0.84-2.057,0.435-2.887c-0.444-0.91-1.012-0.049-1.899,0.68
	c-0.961,0.783-2.317,1.75-3.385,2.832c-0.497,0.748-1.009,1.465-1.504,2.133c-0.04,0.076-0.093,0.146-0.158,0.215
	c-0.582,0.779-1.134,1.498-1.591,2.111c-0.515,0.689-3.069,0.787-2.858,0.504c0.561-0.754,1.144-1.537,1.72-2.342
	c-0.011-0.066-0.008-0.141,0.026-0.229c0.295-0.75,1.087-1.895,2.146-3.094c0.955-1.631,1.757-3.328,2.188-5.076
	c0.3-1.215-0.186-6.414-2.294-4.35c-1.618,1.584-2.823,3.488-3.751,5.547c-0.109,0.24-0.472,0.43-0.901,0.559
	c-0.793,1.6-1.694,3.201-2.553,4.869c-0.5,0.971-3.427,1.166-2.73-0.184c2.625-5.098,5.771-9.545,4.247-15.277
	c-3.92,2.48-5.269,7.174-7.882,10.84c0.241,0.43-0.027,1.1-0.987,1.42c-0.154,0.053-0.324,0.203-0.482,0.354
	c-0.014,0.014-0.023,0.027-0.036,0.041c0-0.002,0-0.004,0-0.006c-0.087,0.082-0.171,0.162-0.245,0.223
	c-0.154,0.125-0.334,0.211-0.523,0.275c0.104,2.322,0.244,4.645,0.815,6.918c0.297,1.184-2.604,1.951-2.898,0.777
	c-1.292-5.148-0.391-10.566-1.835-15.639c-4.854,3.801-4.293,13.758-4.296,19.057c0,0.465-0.507,0.826-1.096,0.998
	c4.041,1.646,7.965,5.109,10.641,7.688c2.414,2.324,6.135,5.207,8.443,8.449c2.429-2.969,4.842-5.959,7.015-9.117
	C256.861,347.043,258.447,344.688,259.662,342.165z M312.576,381.485c7.754,7.244,24.748,18.941,34.499,8.586
	c10.659-11.324,8.546-31.859,8.521-46.168c0-0.061,0.012-0.117,0.031-0.176c-4.068,1.361-8.489,1.771-12.73,1.707
	c-0.885-0.014-5.821,0.016-9.278-0.625c-0.169-0.031-0.334-0.063-0.495-0.098c0.001,0.031,0.002,0.064,0.002,0.1
	c0.113,6.174,0.484,12.344,0.52,18.52c0.001,0.148-0.067,0.285-0.177,0.41c1.19,0.998,2.354,2.033,3.462,3.154
	c0.756,0.766-1.988,1.84-2.693,1.127c-3.547-3.596-7.576-6.486-11.849-9.023c-3.553-2.107-7.271-3.973-11.035-5.771
	c-6.75-3.229-13.623-6.273-19.855-10.242c-0.329-0.211-0.343-0.453-0.184-0.682c-3.264-3.766-2.588-10.545-5.335-14.752
	c-1.067-1.637-2.314-3.344-3.898-4.529c-0.24-0.201-0.492-0.383-0.754-0.551c-0.038-0.023-0.077-0.043-0.115-0.066
	c0,0.016,0,0.029-0.001,0.045c-0.037,0.758,0.007,1.512,0.182,2.254c0.871,3.4,3.142,6.178,3.954,9.604
	c0.037,0.158-0.035,0.311-0.179,0.453c0.853,0.719-0.931,2.168-2.097,1.799c-3.366-1.066-5.574-3.711-7.594-6.471
	c-1.177-1.609-2.521-3.693-4.256-5.027c-0.741,0.713-2.605,0.777-2.631-0.414c-0.005-0.266-0.003-0.545-0.004-0.818
	c-0.171-0.031-0.348-0.049-0.523-0.063c-0.011,0.072-0.011,0.205,0.056,0.465c0.121,0.486,0.271,0.963,0.478,1.422
	c0.548,1.217,1.246,2.371,1.988,3.479c1.203,1.799,2.487,3.555,3.902,5.193c1.003,1.16-1.738,2.355-2.646,1.307
	c-1.078-1.248-5.133-5.934-6.409-9.563c-0.348,0.084-0.712,0.092-1.021-0.025c-0.182-0.068-0.321-0.119-0.45-0.15
	c-0.026,0.066-0.048,0.133-0.064,0.209c-0.014,0.057-0.052,0.098-0.071,0.15c0.276,0.16,0.538,0.373,0.771,0.654
	c0.813,0.984,0.481,2.568-0.158,4.094c0.123,0.041,0.225,0.104,0.291,0.199c1.449,2.047,2.786,4.168,4.236,6.215
	c0.276,0.391-2.362,1.531-2.897,0.775c-0.451-0.637-0.884-1.287-1.319-1.934c-0.002,0.01,0.004,0.018,0.001,0.027
	c-0.491,1.957-1.19,3.848-2.029,5.682c0.104,0.033,0.2,0.076,0.28,0.141c6.548,5.229,11.842,10.609,20.462,11.076
	c0.554-0.578,2.101-0.973,2.626-0.424C295.096,362.157,303.048,372.584,312.576,381.485z M360.432,407.52
	c0.797-0.609,1.555-1.254,2.245-1.961c-3.376-6.029-6.912-12.762-8.772-19.609c-0.118-0.439-0.234-0.879-0.34-1.318
	c-0.465,0.969-0.978,1.906-1.553,2.797c-1.664,2.576-3.82,4.756-6.657,6.168c-7.645,3.803-16.498,1.738-23.897-2.295
	c-0.424-0.232-0.842-0.473-1.256-0.715c-2.01-1.182-3.896-2.494-5.599-3.859c-7.811-6.268-14.394-13.859-20.975-21.428
	c0.805,4.813-0.06,10.303-0.825,14.471c-1.538,8.371-3.944,16.711-7.456,24.477c-0.039,0.088-0.104,0.166-0.182,0.242
	c0.643-0.234,1.383-0.338,1.687-0.074c11.111,9.656,27.245,11.867,41.476,11.172c6.073-0.301,13.789-0.852,20.784-2.789
	C353.324,411.629,357.258,409.942,360.432,407.52z M421.531,264.256c-4.479-1.76-3.652-8.168-3.14-11.961
	c0.197-1.451-2.759-1.045-2.932,0.232c-0.658,4.855-1.086,11.496,4.39,13.648C421.048,266.647,423.24,264.928,421.531,264.256z
	 M436.452,264.073c1.267,3.373,0.838,7.449-2.818,9.023c-3.794,1.635-6.832-1.27-8.366-4.48c-0.369-0.773,1.478-1.52,2.433-1.17
	c1.918-1.326,4.376-1.639,6.13-3.268C434.348,263.694,436.085,263.1,436.452,264.073z M433.998,266.333
	c-0.404,0.229-0.817,0.441-1.251,0.621c-1.102,0.455-2.446,0.748-3.35,1.559c-0.18,0.162-0.401,0.285-0.637,0.385
	c0.992,1.592,2.851,3.904,4.229,2.563C434.369,270.112,434.413,268.131,433.998,266.333z M408.04,246.92
	c1.2,1.27,1.41,2.691,1.411,4.373c0.001,0.717,2.898,0.223,2.897-0.777c-0.002-1.818-0.313-3.303-1.601-4.664
	C410.139,245.208,407.406,246.25,408.04,246.92z M427.622,243.647c1.2,1.27,1.41,2.691,1.411,4.373
	c0.001,0.717,2.898,0.223,2.897-0.777c-0.002-1.818-0.313-3.305-1.601-4.664C429.721,241.934,426.988,242.977,427.622,243.647z
	 M409.981,239.026c-0.438-0.482-1.419-0.299-1.927-0.063c-1.446,0.676-3.064,0.83-4.52,1.508c-0.372,0.174-1.22,0.715-0.758,1.223
	c0.439,0.484,1.42,0.301,1.928,0.064c1.445-0.674,3.064-0.828,4.52-1.508C409.597,240.077,410.443,239.536,409.981,239.026z
	 M428.055,238.094c0.419-0.545-0.354-0.75-0.758-0.75c-1.256,0-2.511,0-3.766,0c-0.643,0-1.51,0.229-1.921,0.764
	c-0.419,0.547,0.354,0.752,0.759,0.752c1.256,0,2.511,0,3.766,0C426.776,238.858,427.644,238.629,428.055,238.094z M516.441,401.303
	c-2.629,1.918-5.285,3.797-7.955,5.66c-0.117,0.082-0.236,0.164-0.354,0.246c0.122-0.031,0.247-0.059,0.372-0.07
	c0.72-0.082,1.417,0.156,1.396,0.861c-0.29,9.604,3.71,18.596,5.071,27.986c0.118,0.818-0.983,1.402-1.864,1.42
	c-0.521,0.01-0.967-0.182-1.033-0.643c-1.389-9.578-5.395-18.705-5.098-28.502c0.003-0.109,0.037-0.211,0.084-0.309
	c-5.897,4.1-11.84,8.139-17.674,12.326c-5.486,3.939-11.576,7.92-16.961,12.486c-2.836,2.402-5.477,4.969-7.725,7.779
	c0.106,0.141,0.048,0.34-0.287,0.604c-7.599,5.951-19.971,13.684-29.809,8.752c-0.667-0.334-0.185-0.854,0.532-1.188
	c-2.748-0.447-5.152-1.748-6.488-4.293c-3.155-0.355-6.137-1.355-8.544-3.498c-0.501-0.445,0.145-1.002,0.954-1.271
	c-1.246-0.357-2.453-0.826-3.59-1.436c-0.313-0.17-0.385-0.449-0.201-0.752c0-0.002,0.001-0.002,0.002-0.004
	c3.158-5.195,10.724-5.998,16.354-7.789c-5.579-0.205-15.424-0.193-15.109-3.512c0.178-1.875,2.974-3.455,5.813-4.561
	c2.22-0.865,4.466-1.439,5.511-1.639c6.94-1.328,13.885-0.59,20.882-0.436c3.264-1.41,6.154-3.561,8.806-6.002
	c-0.566,0.053-1.063-0.08-1.116-0.486c-2.507-19.762-2.912-39.371-3.485-59.242c-0.522-18.1-2.331-36.398,0.639-54.383
	c-1.105,0.139-1.161-0.475-0.708-1.016c-0.259-0.016-0.418-0.064-0.374-0.15c1.537-2.965,2.634-6.125,3.796-9.25
	c-6.6,4.17-16.644,4.848-23.484,3.275c-1.415,3.117-1.437,6.883-2.871,9.994c-0.027,0.059-0.07,0.113-0.12,0.166
	c0.043,0.084,0.092,0.154,0.134,0.24c0.085,0.172-0.177,0.4-0.572,0.6c-2.838,20.225-1.485,40.879-3.2,61.213
	c-1.488,17.652-4.846,37.371,0.948,54.555c0.303,0.898-1.757,1.625-2.593,1.135c-0.142-0.084-0.252-0.197-0.306-0.357
	c-5.694-16.891-2.533-36.313-1.071-53.652c1.778-21.094,0.367-42.563,3.463-63.523c-2.347-4.086-5.944-5.525-10.56-2.906
	c-0.225,0.127-2.938,0.859-2.547,0.186c1.563-2.688,3.385-5.572,5.604-8.004c-1.792,0.918-3.593,1.842-5.385,2.85
	c-6.485,3.645-8.896,10.162-10.63,17.057c-3.755,14.928-8.509,30.059-10.599,45.422c8.081,0.102,16.471,4.766,21.512,11.295
	c-0.175-18.219-0.649-36.5,2.312-54.535c0.146-0.883,3.048-1.408,2.885-0.414c-3.247,19.777-2.34,39.854-2.26,59.813
	c2.679,5.947,2.536,12.719-2.476,18.828c-0.201,0.244-0.497,0.4-0.818,0.484c-2.521,6.162-6.671,11.641-11.946,15.697
	c0.429,0.068,0.704,0.289,0.568,0.703c-2.867,8.779-2.332,18.355-1.703,27.438c0.011,0.154-0.024,0.299-0.093,0.434
	c-0.489,0.961-2.736,1.344-2.807,0.344c-0.619-8.961-1.187-18.393,1.438-27.098c-4.219,2.68-10.556,4.746-15.367,2.43
	c-7.688-3.705-10.55-13.537-11.877-21.316c-1.742-10.219-1.654-20.65-3.567-30.84c-0.034-0.188,0.075-0.367,0.265-0.525
	c-3.075-3.822-7.071-7.271-8.114-12.064c-1.345-6.184-1.691-15.377,1.344-21.129c1.537-2.91,6.107-7.059,10.467-8.141
	c0.132-2.779,1.034-5.191,3.554-6.604c1.714-0.959,4.21-0.988,5.84,0.16c4.154,2.934,2.037,10.404,1.974,14.762
	c-0.002,0.125-0.048,0.24-0.126,0.348c0.072,0.057,0.119,0.127,0.126,0.217c0.904,12.037-3.382,24.104,3.926,34.9
	c0.445,0.658,0.896,1.301,1.346,1.938c0.139-1.729,0.32-3.461,0.529-5.191c-0.261-0.354-0.185-0.881,0.152-1.291
	c2.061-15.934,6.79-31.881,11.05-47.129c1.694-6.063,4.118-12.096,9.747-15.48c6.03-3.629,12.46-6.057,18.135-10.359
	c0.161-0.123,0.547-0.242,0.967-0.322c-0.361-0.934-0.853-1.785-1.431-2.609c-7.296,0.482-14.622-2.225-19.795-8.355
	c-8.87-10.514-11.564-25.783-10.6-39.188c0.001-0.012,0.005-0.021,0.006-0.031c-1.299-8.043,2.221-14.652,8.048-19.539
	c6.331-7.127,17.307-10.428,28.73-9.609c3.48,0.043,6.775,0.518,9.639,1.473c20.41,6.813,29.014,38.227,16.406,55.182
	c-0.029,0.039-0.065,0.07-0.1,0.105c-1.311,3.629-1.951,7.459-0.27,11.105c0.697,1.516,1.568,2.936,2.307,4.422
	c0.64-0.438,1.938-0.813,2.452-0.447c2.551,1.809,5.421,3.32,8.421,4.725c1-0.492,3.053-0.482,2.317,0.398
	c-0.134,0.158-0.249,0.326-0.376,0.49c9.859,4.402,20.762,7.998,26.827,16.654c7.862,11.221,8.474,26.098,10.777,39.186
	c1.574,8.939,2.923,17.947,4.979,26.795c1.136,4.881,2.813,9.598,4.061,14.441c0.194,0.205,0.397,0.396,0.59,0.605
	c0.349,0.377,0.195,0.77-0.176,1.068C526.233,389.934,526.076,398.768,516.441,401.303z M500.275,299.122
	c-0.791-0.904-1.63-1.771-2.568-2.557c-6.449-5.395-14.271-8.408-21.837-11.898c-3.667,6.123-4.063,13.754-8.441,19.584
	c-0.509,0.676-2.307,1.342-2.806,0.33c-1.345-2.725-3.42-4.75-6.204-5.211c-2.974,18.342-0.894,36.896-0.559,55.35
	c0.349,19.164,1.01,38.102,3.399,57.139c1.631-1.627,3.18-3.328,4.677-4.984c3.396-3.762,6.834-7.297,9.131-11.852
	c3.104-6.156,6.427-14.404,13.787-15.918c-0.548-0.141-0.563-0.525-0.3-0.914c-3.271-8.723-7.75-17.232-8.116-26.723
	c-0.414-10.746,1.534-21.555-0.563-32.199c-0.155-0.789,2.76-1.48,2.897-0.777c2.113,10.725-0.231,21.424,0.564,32.199
	c0.467,6.314,2.419,12.078,4.639,17.807c11.625-2.605,22.697,0.207,31.65,7.396c-0.359-1.125-0.696-2.166-0.973-3.078
	c-4.009-13.271-6.022-27.551-8.077-41.242c-0.989-6.602-1.854-14.285-4.162-21.193C505.019,306.2,503.074,302.323,500.275,299.122z
	 M462.308,285.411c-1.651,4.021-2.905,8.236-4.896,12.127c3.693-0.244,6.728,1.297,8.847,4.186
	c3.157-5.725,3.788-12.586,7.473-18.064c-2.819-1.355-5.579-2.822-8.194-4.545c-0.094,0.145-0.182,0.289-0.272,0.434
	c0.041,0.115,0.087,0.229,0.125,0.346c0.075,0.234-0.276,0.498-0.761,0.701c-0.011,0.018-0.021,0.037-0.032,0.057
	C464.162,282.452,463.375,284.036,462.308,285.411z M376.88,318.407c1.634,0.145,3.131,0.904,4.288,2.553
	c0.784,1.115,1.324,2.393,1.687,3.754c0.147-2.211,0.334-4.424,0.193-6.639c-0.095-1.49-0.111-3.381-1.463-4.334
	c-3.212-2.268-4.343,1.748-4.447,4.186C377.13,318.104,377.031,318.266,376.88,318.407z M413.191,392.061
	c-2.75-9.072-8.935-17.078-17.525-21.031c2.912,4.213,5.391,8.535,6.526,14.133c0.188,0.926-2.723,1.639-2.897,0.777
	c-1.999-9.846-8.48-15.682-13.438-23.959c-5.072-8.473-3.486-17.555-3.094-26.758c-0.347,1.6-0.805,3.115-1.313,4.457
	c-1.321,3.475-5.263,8.727-8.779,4.133c-0.925-1.207,1.828-2.361,2.647-1.289c2.186,2.852,4.273-6.16,4.525-7.662
	c0.64-3.809,1.394-9.881-1.616-12.969c-1.94-1.992-4.746-0.936-6.833,0.285c-5.641,3.301-6.599,9.43-6.663,15.482
	c-0.057,5.264-0.19,10.691,3.419,14.932c2.558,3.002,5.201,5.678,7.168,9.139c0.518,0.908-0.57,1.703-1.534,1.77
	c1.847,13.793,0.563,29.217,7.775,41.42C391.521,421.774,408.693,404.071,413.191,392.061z M394.205,359.52
	c-0.318,2.689-0.56,5.389-0.685,8.094c10.438,3.088,18.234,11.592,21.896,21.648c2.643-4.295,2.853-8.885,1.426-13.146
	c-0.452,0.01-0.801-0.098-0.802-0.359c-0.001-0.547-0.005-1.094-0.007-1.639C412.313,366.096,403.022,359.704,394.205,359.52z
	 M429.418,299.282c0.229-0.174,0.535-0.309,0.855-0.391c0.631-2.709,1.056-5.488,2.591-7.824c-0.401-1.666-0.599-3.352-0.966-5.025
	c-0.023-0.113-0.068-0.213-0.098-0.322c-0.585,0.42-1.175,0.826-1.771,1.215c-0.018,0.236-0.362,0.557-1.113,0.789
	c-0.104,0.031-0.201,0.078-0.304,0.113c-0.896,0.543-1.804,1.055-2.716,1.557c-2.762,2.18-5.033,5.762-6.74,8.662
	C422.902,296.706,426.604,296.776,429.418,299.282z M459.898,284.911c0.512-1.178,1.069-2.334,1.698-3.457
	c0.075-0.26,0.146-0.521,0.203-0.795c0.045-0.211,0.229-0.396,0.479-0.551c-0.992-2.621-2.832-4.869-3.595-7.576
	c-0.475-1.682-0.563-3.313-0.405-4.92c-0.403,0.578-0.67,0.951-0.67,0.951l-2.48-12.945c-0.249,0.018-0.493,0.029-0.729,0.039
	c-1.924,0.08,0.443-1.186,1.24-1.219c0.277-0.012,0.566-0.029,0.858-0.051c1.546-0.891,3.792-2.834,4.136-6.756
	c0.13-1.479-0.113-2.539-0.574-3.283c-0.001-0.002-0.003-0.004-0.004-0.006c-0.289-0.32-0.614-0.645-0.955-0.959
	c-1.681-1.029-4.246-0.271-5.269,0.93c-1.653,1.936-1.885,5.459-3.014,8.098c-1.13,2.639-1.978,1.271-1.978,1.271l-1.788-6
	c0,0-0.947-3.5-2.906-5.699c-1.515-0.336-3.143-0.488-4.432-1c-3.402-1.348-4.771-4.096-5.232-7.322
	c-0.028-0.051-0.047-0.08-0.047-0.08s-9.41-3.658-16.967-3.02c-0.84,0.217-1.62,0.424-2.293,0.59
	c-1.277,0.313-2.557,0.656-3.84,1.002c-4.02,1.58-7.209,3.68-8.897,4.918c-0.337,10.633,1.678,22.436,7.507,31.311
	c4.817,7.332,12.326,11.818,20.199,11.479c0.617-0.225,1.322-0.328,1.618-0.141c3.158-0.404,6.349-1.596,9.425-3.709
	c1.2-0.824,3.559,0.27,1.938,1.383c-3.07,2.111-6.463,3.496-9.935,4.17c0.688,1.012,1.252,2.098,1.52,3.311
	c0.386,1.764,0.604,3.539,1.021,5.293c0.112,0.068,0.147,0.174,0.075,0.318c0.009,0.033,0.017,0.068,0.024,0.102
	C443.072,292.672,455.033,291.512,459.898,284.911z M514.638,400.618c0.007-0.004,0.017-0.008,0.023-0.014
	c0.153-0.156,0.417-0.295,0.774-0.4c0.062-0.02,0.105-0.043,0.173-0.059c8.704-2.029,7.679-11.256,5.544-19.164
	c-8.654-9.018-20.149-13.273-32.457-10.645c0.911,2.309,1.844,4.621,2.721,6.969c12.597,0.91,20.065,10.625,25.697,21.176
	c0.471,0.879-0.757,1.629-1.723,1.646c-0.413,0.008-0.779-0.115-0.943-0.424c-4.336-8.119-9.758-16.1-18.174-19.193
	c-1.442-0.531-2.969-0.932-4.599-1.148c0.073,0.186,0.061,0.4-0.031,0.613c-0.192,0.449-0.718,0.875-1.426,0.92
	c-9.013,0.564-11.3,14.871-16.395,20.594c-6.271,7.047-12.757,15.654-21.646,19.547c-0.373,0.305-0.858,0.531-1.31,0.527
	c-5.944-0.068-12.047-0.967-17.966-0.148c-3.391,0.471-6.612,1.5-9.595,3.203c-0.531,0.305-1.188,0.66-1.482,0.994
	c-0.304,0.346-0.224,0.668,0.782,0.885c0.515,0.111,1.031,0.197,1.552,0.273c4.803,0.688,9.832-0.016,14.514,1.326
	c1.666,0.479-0.344,2.068-1.546,1.896c-0.114,0.074-0.246,0.146-0.417,0.219c-4.685,1.939-11.633,2.211-15.417,5.727
	c-1.894,1.756,0.577,2,2.295,2.332c2.159,0.418,4.381,0.629,6.582,0.422c3.26-0.307,6.358-0.98,9.339-2.367
	c1.308-0.605,2.982,0.381,1.154,1.23c-5.098,2.369-11.519,3.619-17.32,2.623c5.051,3.908,12.785,2.541,18.61,1.514
	c1.982-0.35,1.1,1.539-0.347,1.795c-2.922,0.516-6.203,1.039-9.449,1.092c2.951,3.74,9.462,3.223,13.256,1.018
	c0.884-0.514,3.464-0.217,1.772,0.766c-2.44,1.418-5.948,2.467-9.328,2.535c7.991,3.141,17.819-3.271,24-8.084
	c0.018-0.029,0.027-0.055,0.053-0.086c6.638-8.371,16.6-14.643,25.188-20.783C496.22,413.422,505.593,407.245,514.638,400.618z
	 M163.735,165.672c-3.711-14.406,1.145-33.229,17.437-36.762c0.397-0.088,0.718-0.068,0.967,0
	c10.054-4.238,22.383-5.104,33.121-5.25c13.195-0.178,29.087,1.09,39.618,10.031c9.874,8.383,16.676,28.652,8.463,40.154
	c-7.772,10.887-23.228,12.979-35.701,14.139c-7.666,6.279-17.556,8.088-26.995,10.314c-0.416,0.195-0.839,0.383-1.272,0.555
	c-0.912,0.361-2.366,0.229-1.603-0.289c-0.433-0.324-0.199-0.984,0.926-1.26c0.934-0.229,1.875-0.445,2.82-0.66
	c3.926-2.498,7.055-6.242,10.604-9.24c-10.291-1.537-20.952-0.33-30.989-3.451C172.697,181.333,165.938,174.227,163.735,165.672z
	 M167.985,168.75c8.63,18.807,29.707,14.482,46.466,17.152c0.449,0.07,0.584,0.234,0.531,0.428c0.426-0.01,0.678,0.059,0.454,0.236
	c-3.783,3.031-6.981,6.619-10.84,9.379c7.33-1.664,14.718-3.539,20.627-8.297c-0.054-0.475,0.633-1.154,1.521-1.234
	c11.91-1.074,31.159-2.816,35.799-16.359c4.249-12.404-1.942-30.334-13.17-37.236c-10.968-6.742-24.734-7.877-37.323-7.381
	c-9.421,0.369-20.179,1.076-28.97,4.84c-0.492,0.211-1.033,0.199-1.428,0.063c-0.034,0.01-0.055,0.021-0.091,0.029
	C165.652,133.821,162.07,155.858,167.985,168.75z M335.347,185.151c-3.078-5.465-3.225-12.395-2.308-18.449
	c1.077-7.117,2.708-15.367,7.495-21.053c7.229-8.584,18.547-11.578,29.422-11.609c8.604-0.025,19.035,0.875,26.717,5.217
	c0.26-0.057,0.504-0.066,0.687-0.014c14.198,4.189,15.352,25.93,12.274,37.709c-1.925,7.367-6.355,14.801-13.854,17.537
	c-6.957,2.537-14.321,1.828-21.498,3.033c2.758,3.203,5.063,6.998,8.41,9.568c0.638,0.201,1.273,0.404,1.909,0.611
	c0.423,0.141,0.337,0.396,0.02,0.652c0.063,0.035,0.125,0.076,0.189,0.109c0.298,0.156-2.002,1.355-2.733,0.969
	c-0.521-0.273-1.015-0.584-1.489-0.914c-7.113-2.268-14.237-4.328-19.354-10.146C351.38,197.09,340.567,194.422,335.347,185.151z
	 M338.46,184.754c5.337,8.541,15.578,10.898,24.941,12.039c0.778,0.094,0.938,0.408,0.784,0.744
	c3.548,3.895,8.028,6.012,12.779,7.686c-2.184-2.457-4.036-5.287-6.238-7.65c-0.154-0.164,0.132-0.418,0.572-0.641
	c0.154-0.236,0.471-0.457,1.021-0.574c6.403-1.354,13.157-0.588,19.482-2.209c8.493-2.178,13.518-9.617,15.179-17.912
	c2.143-10.688,1.819-31.512-11.396-35.412c-0.021-0.006-0.031-0.012-0.049-0.02c-0.409,0.09-0.806,0.094-1.054-0.049
	c-6.494-3.705-15.354-4.764-22.67-4.961c-10.728-0.293-23.461,1.826-29.772,11.586C335.967,156.772,332.091,174.561,338.46,184.754z
	" fill="#0984E3"></path>
</svg>